<svg width="32" height="32" viewBox="0 0 32 32" fill="none" xmlns="http://www.w3.org/2000/svg">
<path d="M15.628 4.12721C17.3448 2.84398 19.4521 2.1929 21.5936 2.28401C27.2752 2.28401 31.2864 6.61201 31.2864 12.2096C31.2864 20.4616 23.676 26.1832 17.8096 29.3576C17.3687 29.5983 16.8744 29.7245 16.372 29.7245C15.8696 29.7245 15.3753 29.5983 14.9344 29.3576C8.33359 25.7624 0.713593 19.4776 0.713593 11.232C0.713593 5.86241 3.69599 2.28321 9.66239 2.28321C11.804 2.19201 13.9104 2.84401 15.628 4.12721Z" fill="black" stroke="black" stroke-width="0.5" stroke-miterlimit="10"/>
<path d="M21.5936 2.28401C19.452 2.19201 17.3448 2.84401 15.628 4.12721C13.9111 2.84399 11.8039 2.1929 9.66239 2.28401C3.69599 2.28401 0.713593 5.86321 0.713593 11.232C0.713593 19.4848 8.36159 25.2064 14.1904 28.38C14.6313 28.6207 15.1256 28.7469 15.628 28.7469C16.1304 28.7469 16.6247 28.6207 17.0656 28.38C22.932 25.2072 30.544 19.4856 30.544 11.232C30.544 5.86241 27.56 2.28321 21.5944 2.28321L21.5936 2.28401Z" fill="#FFBF5C" stroke="black" stroke-width="0.5" stroke-miterlimit="10"/>
<path d="M23 5.02813C25.19 4.79813 25.955 6.02813 26.27 6.90813" stroke="black" stroke-width="0.5" stroke-miterlimit="10" stroke-linecap="round"/>
</svg>
