<svg width="48" height="48" viewBox="0 0 48 48" fill="none" xmlns="http://www.w3.org/2000/svg">
<path d="M23.442 6.19081C26.0173 4.26598 29.1782 3.28935 32.3904 3.42601C40.9128 3.42601 46.9296 9.91801 46.9296 18.3144C46.9296 30.6924 35.514 39.2748 26.7144 44.0364C26.053 44.3975 25.3115 44.5867 24.558 44.5867C23.8044 44.5867 23.063 44.3975 22.4016 44.0364C12.5004 38.6436 1.07037 29.2164 1.07037 16.848C1.07037 8.79361 5.54397 3.42481 14.4936 3.42481C17.706 3.28801 20.8656 4.26601 23.442 6.19081Z" fill="black" stroke="black" stroke-width="0.5" stroke-miterlimit="10"/>
<path d="M32.3904 3.42592C29.178 3.28792 26.0172 4.26592 23.442 6.19072C20.8667 4.26589 17.7058 3.28926 14.4936 3.42592C5.54397 3.42592 1.07037 8.79472 1.07037 16.8479C1.07037 29.2271 12.5424 37.8095 21.2856 42.5699C21.947 42.931 22.6884 43.1203 23.442 43.1203C24.1955 43.1203 24.937 42.931 25.5984 42.5699C34.398 37.8107 45.816 29.2283 45.816 16.8479C45.816 8.79352 41.34 3.42472 32.3916 3.42472L32.3904 3.42592Z" fill="#FAA523" fill-opacity="0.96" stroke="black" stroke-width="0.5" stroke-miterlimit="10"/>
<path d="M34.5 7.5422C37.785 7.1972 38.9325 9.0422 39.405 10.3622" stroke="black" stroke-width="0.5" stroke-miterlimit="10" stroke-linecap="round"/>
</svg>
