<svg width="32" height="32" viewBox="0 0 32 32" fill="none" xmlns="http://www.w3.org/2000/svg">
<g filter="url(#filter0_d_283_76)">
<path d="M8.77032 29.248H23.2297C24.7612 29.248 26.064 28.1326 26.2949 26.6194C26.6652 24.2172 26.752 21.7806 26.5509 19.36H29.3486C29.5533 19.36 29.7542 19.305 29.9303 19.2007C30.1065 19.0965 30.2514 18.9469 30.35 18.7675C30.4485 18.5881 30.4971 18.3856 30.4906 18.181C30.4842 17.9765 30.4229 17.7774 30.3132 17.6046L29.8286 16.8434C26.9183 12.2597 23.2148 8.23103 18.8915 4.9463L17.3829 3.80116C16.9852 3.49898 16.4995 3.33539 16 3.33539C15.5006 3.33539 15.0149 3.49898 14.6172 3.80116L13.1086 4.9463C8.78427 8.23151 5.0799 12.261 2.16917 16.8457L1.68689 17.6069C1.57718 17.7797 1.51589 17.9787 1.50942 18.1833C1.50295 18.3879 1.55153 18.5904 1.6501 18.7698C1.74866 18.9492 1.89359 19.0988 2.06973 19.203C2.24588 19.3073 2.44679 19.3623 2.65146 19.3623H5.44917C5.25052 21.7838 5.33644 24.2202 5.70517 26.6217C5.93832 28.1349 7.23889 29.2503 8.76803 29.2503L8.77032 29.248Z" fill="#FFBF5C"/>
</g>
<path d="M8.77032 29.248H23.2297C24.7612 29.248 26.064 28.1326 26.2949 26.6194C26.6652 24.2171 26.752 21.7806 26.5532 19.36H29.3486C29.5533 19.3599 29.7542 19.3049 29.9303 19.2007C30.1065 19.0965 30.2514 18.9469 30.35 18.7675C30.4485 18.5881 30.4971 18.3856 30.4906 18.181C30.4842 17.9764 30.4229 17.7773 30.3132 17.6046L29.8286 16.8434C26.9183 12.2597 23.2148 8.23101 18.8915 4.94627L17.3829 3.80342C16.9852 3.50124 16.4995 3.33765 16 3.33765C15.5006 3.33765 15.0149 3.50124 14.6172 3.80342L13.1086 4.94627C8.78509 8.23169 5.0815 12.2611 2.17146 16.8457L1.68689 17.6068C1.57718 17.7796 1.51589 17.9787 1.50942 18.1833C1.50295 18.3879 1.55153 18.5904 1.6501 18.7698C1.74866 18.9492 1.89359 19.0988 2.06973 19.203C2.24588 19.3072 2.44679 19.3622 2.65146 19.3623H5.44917C5.25052 21.7838 5.33644 24.2202 5.70517 26.6217C5.93832 28.1348 7.23889 29.2503 8.76803 29.2503L8.77032 29.248Z" stroke="black" stroke-linecap="round" stroke-linejoin="round"/>
<path d="M16 18.4891C18.1029 18.4891 19.8103 20.1943 19.8103 22.2994V29.248H12.1874V22.2994C12.1874 20.1966 13.8949 18.4891 16 18.4891Z" stroke="black" stroke-linecap="round" stroke-linejoin="round"/>
<defs>
<filter id="filter0_d_283_76" x="1.50885" y="3.33539" width="30.4824" height="27.2149" filterUnits="userSpaceOnUse" color-interpolation-filters="sRGB">
<feFlood flood-opacity="0" result="BackgroundImageFix"/>
<feColorMatrix in="SourceAlpha" type="matrix" values="0 0 0 0 0 0 0 0 0 0 0 0 0 0 0 0 0 0 127 0" result="hardAlpha"/>
<feOffset dx="1.5" dy="1.3"/>
<feComposite in2="hardAlpha" operator="out"/>
<feColorMatrix type="matrix" values="0 0 0 0 0 0 0 0 0 0 0 0 0 0 0 0 0 0 1 0"/>
<feBlend mode="normal" in2="BackgroundImageFix" result="effect1_dropShadow_283_76"/>
<feBlend mode="normal" in="SourceGraphic" in2="effect1_dropShadow_283_76" result="shape"/>
</filter>
</defs>
</svg>
