<svg width="48" height="48" viewBox="0 0 48 48" fill="none" xmlns="http://www.w3.org/2000/svg">
<g filter="url(#filter0_d_283_45)">
<path d="M13.1554 43.872H34.8446C37.1417 43.872 39.096 42.1989 39.4423 39.9291C39.9977 36.3257 40.128 32.6709 39.8263 29.04H44.0229C44.3299 29.0399 44.6312 28.9574 44.8954 28.8011C45.1597 28.6447 45.3771 28.4203 45.5249 28.1513C45.6727 27.8822 45.7456 27.5784 45.7359 27.2715C45.7262 26.9647 45.6343 26.666 45.4697 26.4069L44.7429 25.2651C40.3775 18.3895 34.8221 12.3465 28.3371 7.41942L26.0743 5.70171C25.4778 5.24845 24.7492 5.00305 24 5.00305C23.2508 5.00305 22.5222 5.24845 21.9257 5.70171L19.6629 7.41942C13.1764 12.3472 7.6198 18.3914 3.25371 25.2686L2.53028 26.4103C2.36573 26.6695 2.27379 26.9681 2.26409 27.2749C2.25438 27.5818 2.32726 27.8856 2.4751 28.1547C2.62295 28.4237 2.84033 28.6482 3.10456 28.8045C3.36878 28.9608 3.67013 29.0434 3.97714 29.0434H8.17371C7.87573 32.6757 8.00461 36.3303 8.55771 39.9326C8.90743 42.2023 10.8583 43.8754 13.152 43.8754L13.1554 43.872Z" fill="#FAA523"/>
</g>
<path d="M13.1554 43.872H34.8446C37.1417 43.872 39.096 42.1988 39.4423 39.9291C39.9977 36.3257 40.128 32.6708 39.8297 29.04H44.0229C44.3299 29.0399 44.6312 28.9574 44.8954 28.8011C45.1597 28.6447 45.3771 28.4203 45.5249 28.1512C45.6727 27.8822 45.7456 27.5783 45.7359 27.2715C45.7262 26.9646 45.6343 26.666 45.4697 26.4068L44.7429 25.2651C40.3775 18.3895 34.8221 12.3465 28.3371 7.41941L26.0743 5.70513C25.4778 5.25186 24.7492 5.00647 24 5.00647C23.2508 5.00647 22.5222 5.25186 21.9257 5.70513L19.6629 7.41941C13.1776 12.3475 7.62221 18.3917 3.25714 25.2686L2.53028 26.4103C2.36573 26.6694 2.27379 26.9681 2.26409 27.2749C2.25438 27.5818 2.32726 27.8856 2.4751 28.1547C2.62295 28.4237 2.84033 28.6482 3.10456 28.8045C3.36878 28.9608 3.67013 29.0433 3.97714 29.0434H8.17371C7.87573 32.6757 8.00461 36.3303 8.55771 39.9326C8.90743 42.2023 10.8583 43.8754 13.152 43.8754L13.1554 43.872Z" stroke="black" stroke-linecap="round" stroke-linejoin="round"/>
<path d="M24 27.7337C27.1577 27.7337 29.7189 30.2914 29.7189 33.4491V43.872H18.2811V33.4491C18.2811 30.2948 20.8423 27.7337 24 27.7337Z" fill="#FFBF5C"/>
<path d="M24 27.7337C27.1543 27.7337 29.7154 30.2914 29.7154 33.4491V43.872H18.2811V33.4491C18.2811 30.2948 20.8423 27.7337 24 27.7337Z" stroke="black" stroke-linecap="round" stroke-linejoin="round"/>
<defs>
<filter id="filter0_d_283_45" x="2.26323" y="5.00305" width="44.9735" height="40.1724" filterUnits="userSpaceOnUse" color-interpolation-filters="sRGB">
<feFlood flood-opacity="0" result="BackgroundImageFix"/>
<feColorMatrix in="SourceAlpha" type="matrix" values="0 0 0 0 0 0 0 0 0 0 0 0 0 0 0 0 0 0 127 0" result="hardAlpha"/>
<feOffset dx="1.5" dy="1.3"/>
<feComposite in2="hardAlpha" operator="out"/>
<feColorMatrix type="matrix" values="0 0 0 0 0 0 0 0 0 0 0 0 0 0 0 0 0 0 1 0"/>
<feBlend mode="normal" in2="BackgroundImageFix" result="effect1_dropShadow_283_45"/>
<feBlend mode="normal" in="SourceGraphic" in2="effect1_dropShadow_283_45" result="shape"/>
</filter>
</defs>
</svg>
